<svg xmlns="http://www.w3.org/2000/svg" viewBox="0 0 64 64">
  <rect x="4" y="4" width="56" height="56" rx="14" fill="#ffffff"/>
  <path d="M41 14c-4-3-10-4-15-3C16 13 9 22 9 32s7 19 17 21c5 1 11 0 15-3" fill="none" stroke="#1f7a6d" stroke-width="7" stroke-linecap="round"/>
  <path d="M21 32h25" fill="none" stroke="#172033" stroke-width="4" stroke-linecap="round"/>
  <path d="M43 25l8 7-8 7" fill="none" stroke="#172033" stroke-width="4" stroke-linecap="round" stroke-linejoin="round"/>
  <circle cx="23" cy="32" r="4" fill="#1f7a6d"/>
  <circle cx="33" cy="32" r="4" fill="#2f8bd9"/>
  <circle cx="43" cy="32" r="4" fill="#c95f32"/>
  <path d="M23 19v9M33 16v12M43 19v9M23 36v9M33 36v12M43 36v9" stroke="#172033" stroke-width="2.4" stroke-linecap="round" opacity="0.5"/>
</svg>
